<?xml version="1.0" standalone="no"?>
<!DOCTYPE svg PUBLIC "-//W3C//DTD SVG 20010904//EN"
 "http://www.w3.org/TR/2001/REC-SVG-20010904/DTD/svg10.dtd">
<svg version="1.0" xmlns="http://www.w3.org/2000/svg"
 width="260.000000pt" height="260.000000pt" viewBox="0 0 260.000000 260.000000"
 preserveAspectRatio="xMidYMid meet">
<metadata>
Created by potrace 1.11, written by Peter Selinger 2001-2013
</metadata>
<g transform="translate(0.000000,260.000000) scale(0.100000,-0.100000)"
fill="#000000" stroke="none">
<path d="M0 1300 l0 -1300 1300 0 1300 0 0 1300 0 1300 -1300 0 -1300 0 0
-1300z m1510 389 l0 -200 33 24 c77 58 117 72 212 72 81 0 95 -3 138 -28 61
-36 110 -103 139 -192 32 -98 32 -269 1 -370 -40 -128 -132 -228 -236 -256
-60 -16 -173 -6 -232 20 -44 19 -51 20 -61 6 -8 -11 -29 -15 -73 -15 l-61 0 0
570 0 570 70 0 70 0 0 -201z m-475 -123 c54 -23 103 -71 129 -126 20 -42 21
-63 24 -367 l3 -323 -75 0 -76 0 0 41 0 41 -32 -24 c-67 -51 -120 -71 -198
-76 -63 -4 -85 -1 -128 18 -101 43 -160 151 -149 270 15 168 133 242 420 266
l87 7 0 39 c0 50 -23 94 -58 112 -69 36 -227 26 -338 -20 -18 -8 -36 -14 -39
-14 -3 0 -5 33 -5 74 l0 74 78 16 c103 20 301 16 357 -8z"/>
<path d="M1643 1441 c-28 -9 -70 -30 -92 -44 l-41 -27 0 -235 0 -236 46 -19
c104 -45 206 -35 274 26 60 55 75 106 75 259 0 145 -10 187 -57 241 -48 54
-116 66 -205 35z"/>
<path d="M945 1169 c-202 -21 -265 -64 -265 -180 0 -44 4 -55 33 -84 60 -60
174 -57 273 8 l49 32 3 118 c1 64 -1 116 -5 116 -4 -1 -44 -5 -88 -10z"/>
</g>
</svg>
